<mxfile host="65bd71144e">
    <diagram id="D1PdUppwWknASDzR-Zo_" name="Page-1">
        <mxGraphModel dx="2230" dy="505" grid="1" gridSize="10" guides="1" tooltips="1" connect="1" arrows="1" fold="1" page="1" pageScale="1" pageWidth="850" pageHeight="1100" math="0" shadow="0">
            <root>
                <mxCell id="0"/>
                <mxCell id="1" parent="0"/>
                <mxCell id="2" value="" style="shape=table;startSize=0;container=1;collapsible=0;childLayout=tableLayout;" parent="1" vertex="1">
                    <mxGeometry x="120" y="24" width="200" height="204" as="geometry"/>
                </mxCell>
                <mxCell id="3" value="" style="shape=tableRow;horizontal=0;startSize=0;swimlaneHead=0;swimlaneBody=0;top=0;left=0;bottom=0;right=0;collapsible=0;dropTarget=0;fillColor=none;points=[[0,0.5],[1,0.5]];portConstraint=eastwest;" parent="2" vertex="1">
                    <mxGeometry width="200" height="42" as="geometry"/>
                </mxCell>
                <mxCell id="4" value="Utilisateur" style="shape=partialRectangle;html=1;whiteSpace=wrap;connectable=0;overflow=hidden;fillColor=none;top=0;left=0;bottom=0;right=0;pointerEvents=1;" parent="3" vertex="1">
                    <mxGeometry width="200" height="42" as="geometry">
                        <mxRectangle width="200" height="42" as="alternateBounds"/>
                    </mxGeometry>
                </mxCell>
                <mxCell id="5" value="" style="shape=tableRow;horizontal=0;startSize=0;swimlaneHead=0;swimlaneBody=0;top=0;left=0;bottom=0;right=0;collapsible=0;dropTarget=0;fillColor=none;points=[[0,0.5],[1,0.5]];portConstraint=eastwest;" parent="2" vertex="1">
                    <mxGeometry y="42" width="200" height="102" as="geometry"/>
                </mxCell>
                <mxCell id="6" value="&lt;span style=&quot;&quot;&gt;- id: int&lt;/span&gt;&lt;br style=&quot;&quot;&gt;&lt;span style=&quot;&quot;&gt;- username: string&lt;/span&gt;&lt;br style=&quot;&quot;&gt;&lt;span style=&quot;&quot;&gt;- email: string&lt;/span&gt;&lt;br style=&quot;&quot;&gt;&lt;span style=&quot;&quot;&gt;- password: string&lt;br&gt;&lt;/span&gt;" style="shape=partialRectangle;html=1;whiteSpace=wrap;connectable=0;overflow=hidden;fillColor=none;top=0;left=0;bottom=0;right=0;pointerEvents=1;align=left;" parent="5" vertex="1">
                    <mxGeometry width="200" height="102" as="geometry">
                        <mxRectangle width="200" height="102" as="alternateBounds"/>
                    </mxGeometry>
                </mxCell>
                <mxCell id="7" value="" style="shape=tableRow;horizontal=0;startSize=0;swimlaneHead=0;swimlaneBody=0;top=0;left=0;bottom=0;right=0;collapsible=0;dropTarget=0;fillColor=none;points=[[0,0.5],[1,0.5]];portConstraint=eastwest;" parent="2" vertex="1">
                    <mxGeometry y="144" width="200" height="60" as="geometry"/>
                </mxCell>
                <mxCell id="8" value="+&amp;nbsp;&lt;span style=&quot;&quot;&gt;signup&lt;/span&gt;&lt;span style=&quot;&quot;&gt;() : void&lt;/span&gt;&lt;br style=&quot;&quot;&gt;&lt;span style=&quot;&quot;&gt;+ signin&lt;/span&gt;&lt;span style=&quot;&quot;&gt;() : void&lt;br&gt;+ logout() : void&lt;/span&gt;" style="shape=partialRectangle;html=1;whiteSpace=wrap;connectable=0;overflow=hidden;fillColor=none;top=0;left=0;bottom=0;right=0;pointerEvents=1;align=left;" parent="7" vertex="1">
                    <mxGeometry width="200" height="60" as="geometry">
                        <mxRectangle width="200" height="60" as="alternateBounds"/>
                    </mxGeometry>
                </mxCell>
                <mxCell id="30" value="" style="shape=table;startSize=0;container=1;collapsible=0;childLayout=tableLayout;fontStyle=1" parent="1" vertex="1">
                    <mxGeometry x="500" y="351" width="200" height="189" as="geometry"/>
                </mxCell>
                <mxCell id="31" value="" style="shape=tableRow;horizontal=0;startSize=0;swimlaneHead=0;swimlaneBody=0;top=0;left=0;bottom=0;right=0;collapsible=0;dropTarget=0;fillColor=none;points=[[0,0.5],[1,0.5]];portConstraint=eastwest;" parent="30" vertex="1">
                    <mxGeometry width="200" height="45" as="geometry"/>
                </mxCell>
                <mxCell id="32" value="Commentaire" style="shape=partialRectangle;html=1;whiteSpace=wrap;connectable=0;overflow=hidden;fillColor=none;top=0;left=0;bottom=0;right=0;pointerEvents=1;" parent="31" vertex="1">
                    <mxGeometry width="200" height="45" as="geometry">
                        <mxRectangle width="200" height="45" as="alternateBounds"/>
                    </mxGeometry>
                </mxCell>
                <mxCell id="33" value="" style="shape=tableRow;horizontal=0;startSize=0;swimlaneHead=0;swimlaneBody=0;top=0;left=0;bottom=0;right=0;collapsible=0;dropTarget=0;fillColor=none;points=[[0,0.5],[1,0.5]];portConstraint=eastwest;" parent="30" vertex="1">
                    <mxGeometry y="45" width="200" height="94" as="geometry"/>
                </mxCell>
                <mxCell id="34" value="&lt;div style=&quot;&quot;&gt;&lt;span style=&quot;background-color: initial;&quot;&gt;- id: int&lt;/span&gt;&lt;/div&gt;&lt;span style=&quot;&quot;&gt;&lt;div style=&quot;&quot;&gt;&lt;span style=&quot;background-color: initial;&quot;&gt;- email: string&lt;/span&gt;&lt;br&gt;&lt;/div&gt;&lt;/span&gt;&lt;span style=&quot;&quot;&gt;&lt;div style=&quot;&quot;&gt;&lt;span style=&quot;background-color: initial;&quot;&gt;- commentair: string&lt;/span&gt;&lt;/div&gt;&lt;div style=&quot;&quot;&gt;- User : User&lt;span style=&quot;background-color: initial;&quot;&gt;&lt;br&gt;&lt;/span&gt;&lt;/div&gt;&lt;div style=&quot;&quot;&gt;- Publication: Publication&lt;/div&gt;&lt;/span&gt;" style="shape=partialRectangle;html=1;whiteSpace=wrap;connectable=0;overflow=hidden;fillColor=none;top=0;left=0;bottom=0;right=0;pointerEvents=1;align=left;" parent="33" vertex="1">
                    <mxGeometry width="200" height="94" as="geometry">
                        <mxRectangle width="200" height="94" as="alternateBounds"/>
                    </mxGeometry>
                </mxCell>
                <mxCell id="35" value="" style="shape=tableRow;horizontal=0;startSize=0;swimlaneHead=0;swimlaneBody=0;top=0;left=0;bottom=0;right=0;collapsible=0;dropTarget=0;fillColor=none;points=[[0,0.5],[1,0.5]];portConstraint=eastwest;" parent="30" vertex="1">
                    <mxGeometry y="139" width="200" height="50" as="geometry"/>
                </mxCell>
                <mxCell id="36" value="&lt;span style=&quot;&quot;&gt;+ addCommentair&lt;/span&gt;&lt;span style=&quot;&quot;&gt;(id) : void&lt;/span&gt;" style="shape=partialRectangle;html=1;whiteSpace=wrap;connectable=0;overflow=hidden;fillColor=none;top=0;left=0;bottom=0;right=0;pointerEvents=1;align=left;" parent="35" vertex="1">
                    <mxGeometry width="200" height="50" as="geometry">
                        <mxRectangle width="200" height="50" as="alternateBounds"/>
                    </mxGeometry>
                </mxCell>
                <mxCell id="37" value="" style="shape=table;startSize=0;container=1;collapsible=0;childLayout=tableLayout;" parent="1" vertex="1">
                    <mxGeometry x="500" y="40" width="200" height="230" as="geometry"/>
                </mxCell>
                <mxCell id="38" value="" style="shape=tableRow;horizontal=0;startSize=0;swimlaneHead=0;swimlaneBody=0;top=0;left=0;bottom=0;right=0;collapsible=0;dropTarget=0;fillColor=none;points=[[0,0.5],[1,0.5]];portConstraint=eastwest;" parent="37" vertex="1">
                    <mxGeometry width="200" height="50" as="geometry"/>
                </mxCell>
                <mxCell id="39" value="Publication" style="shape=partialRectangle;html=1;whiteSpace=wrap;connectable=0;overflow=hidden;fillColor=none;top=0;left=0;bottom=0;right=0;pointerEvents=1;" parent="38" vertex="1">
                    <mxGeometry width="200" height="50" as="geometry">
                        <mxRectangle width="200" height="50" as="alternateBounds"/>
                    </mxGeometry>
                </mxCell>
                <mxCell id="40" value="" style="shape=tableRow;horizontal=0;startSize=0;swimlaneHead=0;swimlaneBody=0;top=0;left=0;bottom=0;right=0;collapsible=0;dropTarget=0;fillColor=none;points=[[0,0.5],[1,0.5]];portConstraint=eastwest;" parent="37" vertex="1">
                    <mxGeometry y="50" width="200" height="90" as="geometry"/>
                </mxCell>
                <mxCell id="41" value="- id: int&amp;nbsp;&lt;br&gt;- image: string&lt;br&gt;- article: string&lt;br&gt;- Utilisateur : Utilisateur&amp;nbsp;" style="shape=partialRectangle;html=1;whiteSpace=wrap;connectable=0;overflow=hidden;fillColor=none;top=0;left=0;bottom=0;right=0;pointerEvents=1;align=left;" parent="40" vertex="1">
                    <mxGeometry width="200" height="90" as="geometry">
                        <mxRectangle width="200" height="90" as="alternateBounds"/>
                    </mxGeometry>
                </mxCell>
                <mxCell id="42" value="" style="shape=tableRow;horizontal=0;startSize=0;swimlaneHead=0;swimlaneBody=0;top=0;left=0;bottom=0;right=0;collapsible=0;dropTarget=0;fillColor=none;points=[[0,0.5],[1,0.5]];portConstraint=eastwest;" parent="37" vertex="1">
                    <mxGeometry y="140" width="200" height="90" as="geometry"/>
                </mxCell>
                <mxCell id="43" value="+ addPublication() : void&lt;br&gt;+ getPublication() : void&lt;br&gt;+ deletePublication(id) : void&lt;br&gt;+ updatePublication(id) : void" style="shape=partialRectangle;html=1;whiteSpace=wrap;connectable=0;overflow=hidden;fillColor=none;top=0;left=0;bottom=0;right=0;pointerEvents=1;align=left;" parent="42" vertex="1">
                    <mxGeometry width="200" height="90" as="geometry">
                        <mxRectangle width="200" height="90" as="alternateBounds"/>
                    </mxGeometry>
                </mxCell>
                <mxCell id="44" value="" style="shape=table;startSize=0;container=1;collapsible=0;childLayout=tableLayout;" parent="1" vertex="1">
                    <mxGeometry x="110" y="400" width="200" height="160.0000000000001" as="geometry"/>
                </mxCell>
                <mxCell id="45" value="" style="shape=tableRow;horizontal=0;startSize=0;swimlaneHead=0;swimlaneBody=0;top=0;left=0;bottom=0;right=0;collapsible=0;dropTarget=0;fillColor=none;points=[[0,0.5],[1,0.5]];portConstraint=eastwest;" parent="44" vertex="1">
                    <mxGeometry width="200" height="50" as="geometry"/>
                </mxCell>
                <mxCell id="46" value="Jadore" style="shape=partialRectangle;html=1;whiteSpace=wrap;connectable=0;overflow=hidden;fillColor=none;top=0;left=0;bottom=0;right=0;pointerEvents=1;" parent="45" vertex="1">
                    <mxGeometry width="200" height="50" as="geometry">
                        <mxRectangle width="200" height="50" as="alternateBounds"/>
                    </mxGeometry>
                </mxCell>
                <mxCell id="47" value="" style="shape=tableRow;horizontal=0;startSize=0;swimlaneHead=0;swimlaneBody=0;top=0;left=0;bottom=0;right=0;collapsible=0;dropTarget=0;fillColor=none;points=[[0,0.5],[1,0.5]];portConstraint=eastwest;" parent="44" vertex="1">
                    <mxGeometry y="50" width="200" height="70" as="geometry"/>
                </mxCell>
                <mxCell id="48" value="- id:int&lt;br&gt;- Utilisateur: Utilisateur&lt;br&gt;- Commentaire: Commentaire" style="shape=partialRectangle;html=1;whiteSpace=wrap;connectable=0;overflow=hidden;fillColor=none;top=0;left=0;bottom=0;right=0;pointerEvents=1;align=left;" parent="47" vertex="1">
                    <mxGeometry width="200" height="70" as="geometry">
                        <mxRectangle width="200" height="70" as="alternateBounds"/>
                    </mxGeometry>
                </mxCell>
                <mxCell id="49" value="" style="shape=tableRow;horizontal=0;startSize=0;swimlaneHead=0;swimlaneBody=0;top=0;left=0;bottom=0;right=0;collapsible=0;dropTarget=0;fillColor=none;points=[[0,0.5],[1,0.5]];portConstraint=eastwest;" parent="44" vertex="1">
                    <mxGeometry y="120" width="200" height="40" as="geometry"/>
                </mxCell>
                <mxCell id="50" value="+ faireJadore() : void" style="shape=partialRectangle;html=1;whiteSpace=wrap;connectable=0;overflow=hidden;fillColor=none;top=0;left=0;bottom=0;right=0;pointerEvents=1;align=left;" parent="49" vertex="1">
                    <mxGeometry width="200" height="40" as="geometry">
                        <mxRectangle width="200" height="40" as="alternateBounds"/>
                    </mxGeometry>
                </mxCell>
                <mxCell id="51" value="" style="endArrow=none;html=1;entryX=-0.011;entryY=0.582;entryDx=0;entryDy=0;entryPerimeter=0;" parent="1" target="40" edge="1">
                    <mxGeometry width="50" height="50" relative="1" as="geometry">
                        <mxPoint x="320" y="170" as="sourcePoint"/>
                        <mxPoint x="370" y="120" as="targetPoint"/>
                    </mxGeometry>
                </mxCell>
                <mxCell id="52" value="1.1" style="text;html=1;align=center;verticalAlign=middle;resizable=0;points=[];autosize=1;strokeColor=none;fillColor=none;" parent="1" vertex="1">
                    <mxGeometry x="312" y="145" width="40" height="30" as="geometry"/>
                </mxCell>
                <mxCell id="53" value="1.*" style="text;html=1;align=center;verticalAlign=middle;resizable=0;points=[];autosize=1;strokeColor=none;fillColor=none;" parent="1" vertex="1">
                    <mxGeometry x="464" y="147" width="40" height="30" as="geometry"/>
                </mxCell>
                <mxCell id="54" value="" style="endArrow=none;html=1;exitX=0.595;exitY=-0.021;exitDx=0;exitDy=0;exitPerimeter=0;" parent="1" source="45" target="7" edge="1">
                    <mxGeometry width="50" height="50" relative="1" as="geometry">
                        <mxPoint x="230" y="380" as="sourcePoint"/>
                        <mxPoint x="407.79999999999995" y="381.48" as="targetPoint"/>
                    </mxGeometry>
                </mxCell>
                <mxCell id="55" value="0.1" style="text;html=1;align=center;verticalAlign=middle;resizable=0;points=[];autosize=1;strokeColor=none;fillColor=none;" parent="1" vertex="1">
                    <mxGeometry x="214" y="228" width="40" height="30" as="geometry"/>
                </mxCell>
                <mxCell id="56" value="0.*" style="text;html=1;align=center;verticalAlign=middle;resizable=0;points=[];autosize=1;strokeColor=none;fillColor=none;" parent="1" vertex="1">
                    <mxGeometry x="220" y="375" width="40" height="30" as="geometry"/>
                </mxCell>
                <mxCell id="57" value="" style="endArrow=none;html=1;exitX=0.998;exitY=0.129;exitDx=0;exitDy=0;exitPerimeter=0;entryX=-0.011;entryY=0.654;entryDx=0;entryDy=0;entryPerimeter=0;" parent="1" source="47" target="33" edge="1">
                    <mxGeometry width="50" height="50" relative="1" as="geometry">
                        <mxPoint x="337.79" y="468.95000000000005" as="sourcePoint"/>
                        <mxPoint x="329.99845921450157" y="340" as="targetPoint"/>
                    </mxGeometry>
                </mxCell>
                <mxCell id="58" value="0.*" style="text;html=1;align=center;verticalAlign=middle;resizable=0;points=[];autosize=1;strokeColor=none;fillColor=none;" parent="1" vertex="1">
                    <mxGeometry x="301" y="436" width="40" height="30" as="geometry"/>
                </mxCell>
                <mxCell id="59" value="0.1" style="text;html=1;align=center;verticalAlign=middle;resizable=0;points=[];autosize=1;strokeColor=none;fillColor=none;" parent="1" vertex="1">
                    <mxGeometry x="464" y="434" width="40" height="30" as="geometry"/>
                </mxCell>
                <mxCell id="60" value="" style="endArrow=none;html=1;exitX=0.498;exitY=0.008;exitDx=0;exitDy=0;exitPerimeter=0;" parent="1" source="31" edge="1">
                    <mxGeometry width="50" height="50" relative="1" as="geometry">
                        <mxPoint x="599.5" y="368.95000000000005" as="sourcePoint"/>
                        <mxPoint x="600.5" y="270" as="targetPoint"/>
                    </mxGeometry>
                </mxCell>
                <mxCell id="61" value="0.1" style="text;html=1;align=center;verticalAlign=middle;resizable=0;points=[];autosize=1;strokeColor=none;fillColor=none;" parent="1" vertex="1">
                    <mxGeometry x="569" y="266" width="40" height="30" as="geometry"/>
                </mxCell>
                <mxCell id="62" value="0.*" style="text;html=1;align=center;verticalAlign=middle;resizable=0;points=[];autosize=1;strokeColor=none;fillColor=none;" parent="1" vertex="1">
                    <mxGeometry x="565" y="325" width="40" height="30" as="geometry"/>
                </mxCell>
                <mxCell id="63" value="" style="endArrow=none;html=1;entryX=0;entryY=0.5;entryDx=0;entryDy=0;" parent="1" target="31" edge="1">
                    <mxGeometry width="50" height="50" relative="1" as="geometry">
                        <mxPoint x="320" y="230" as="sourcePoint"/>
                        <mxPoint x="497.79999999999995" y="231.48000000000002" as="targetPoint"/>
                    </mxGeometry>
                </mxCell>
                <mxCell id="64" value="1.1" style="text;html=1;align=center;verticalAlign=middle;resizable=0;points=[];autosize=1;strokeColor=none;fillColor=none;" parent="1" vertex="1">
                    <mxGeometry x="310" y="209" width="40" height="30" as="geometry"/>
                </mxCell>
                <mxCell id="65" value="1.*" style="text;html=1;align=center;verticalAlign=middle;resizable=0;points=[];autosize=1;strokeColor=none;fillColor=none;" parent="1" vertex="1">
                    <mxGeometry x="466" y="335" width="40" height="30" as="geometry"/>
                </mxCell>
                <mxCell id="69" value="" style="shape=table;startSize=0;container=1;collapsible=0;childLayout=tableLayout;fontStyle=1" parent="1" vertex="1">
                    <mxGeometry x="-190" y="100" width="200" height="189" as="geometry"/>
                </mxCell>
                <mxCell id="70" value="" style="shape=tableRow;horizontal=0;startSize=0;swimlaneHead=0;swimlaneBody=0;top=0;left=0;bottom=0;right=0;collapsible=0;dropTarget=0;fillColor=none;points=[[0,0.5],[1,0.5]];portConstraint=eastwest;" parent="69" vertex="1">
                    <mxGeometry width="200" height="45" as="geometry"/>
                </mxCell>
                <mxCell id="71" value="Message" style="shape=partialRectangle;html=1;whiteSpace=wrap;connectable=0;overflow=hidden;fillColor=none;top=0;left=0;bottom=0;right=0;pointerEvents=1;" parent="70" vertex="1">
                    <mxGeometry width="200" height="45" as="geometry">
                        <mxRectangle width="200" height="45" as="alternateBounds"/>
                    </mxGeometry>
                </mxCell>
                <mxCell id="72" value="" style="shape=tableRow;horizontal=0;startSize=0;swimlaneHead=0;swimlaneBody=0;top=0;left=0;bottom=0;right=0;collapsible=0;dropTarget=0;fillColor=none;points=[[0,0.5],[1,0.5]];portConstraint=eastwest;" parent="69" vertex="1">
                    <mxGeometry y="45" width="200" height="94" as="geometry"/>
                </mxCell>
                <mxCell id="73" value="&lt;div style=&quot;&quot;&gt;&lt;span style=&quot;background-color: initial;&quot;&gt;- id: int&lt;/span&gt;&lt;/div&gt;&lt;span style=&quot;&quot;&gt;&lt;div style=&quot;&quot;&gt;&lt;span style=&quot;background-color: initial;&quot;&gt;- conntente: string&lt;/span&gt;&lt;br&gt;&lt;/div&gt;&lt;/span&gt;&lt;span style=&quot;&quot;&gt;&lt;div style=&quot;&quot;&gt;&lt;span style=&quot;background-color: initial;&quot;&gt;- User : User&lt;/span&gt;&lt;br&gt;&lt;/div&gt;&lt;/span&gt;" style="shape=partialRectangle;html=1;whiteSpace=wrap;connectable=0;overflow=hidden;fillColor=none;top=0;left=0;bottom=0;right=0;pointerEvents=1;align=left;" parent="72" vertex="1">
                    <mxGeometry width="200" height="94" as="geometry">
                        <mxRectangle width="200" height="94" as="alternateBounds"/>
                    </mxGeometry>
                </mxCell>
                <mxCell id="74" value="" style="shape=tableRow;horizontal=0;startSize=0;swimlaneHead=0;swimlaneBody=0;top=0;left=0;bottom=0;right=0;collapsible=0;dropTarget=0;fillColor=none;points=[[0,0.5],[1,0.5]];portConstraint=eastwest;" parent="69" vertex="1">
                    <mxGeometry y="139" width="200" height="50" as="geometry"/>
                </mxCell>
                <mxCell id="75" value="&lt;span style=&quot;&quot;&gt;+ addMessage&lt;/span&gt;&lt;span style=&quot;&quot;&gt;(id) : void&lt;/span&gt;" style="shape=partialRectangle;html=1;whiteSpace=wrap;connectable=0;overflow=hidden;fillColor=none;top=0;left=0;bottom=0;right=0;pointerEvents=1;align=left;" parent="74" vertex="1">
                    <mxGeometry width="200" height="50" as="geometry">
                        <mxRectangle width="200" height="50" as="alternateBounds"/>
                    </mxGeometry>
                </mxCell>
                <mxCell id="76" value="" style="endArrow=none;html=1;entryX=-0.011;entryY=0.582;entryDx=0;entryDy=0;entryPerimeter=0;" parent="1" edge="1">
                    <mxGeometry width="50" height="50" relative="1" as="geometry">
                        <mxPoint x="10" y="163" as="sourcePoint"/>
                        <mxPoint x="120.00000000000017" y="162.74" as="targetPoint"/>
                    </mxGeometry>
                </mxCell>
                <mxCell id="77" value="0.*" style="text;html=1;align=center;verticalAlign=middle;resizable=0;points=[];autosize=1;strokeColor=none;fillColor=none;" parent="1" vertex="1">
                    <mxGeometry y="135" width="40" height="30" as="geometry"/>
                </mxCell>
                <mxCell id="78" value="0.1" style="text;html=1;align=center;verticalAlign=middle;resizable=0;points=[];autosize=1;strokeColor=none;fillColor=none;" parent="1" vertex="1">
                    <mxGeometry x="90" y="135" width="40" height="30" as="geometry"/>
                </mxCell>
                <mxCell id="79" value="" style="shape=table;startSize=0;container=1;collapsible=0;childLayout=tableLayout;fontStyle=1" parent="1" vertex="1">
                    <mxGeometry x="-180" y="351" width="200" height="159" as="geometry"/>
                </mxCell>
                <mxCell id="80" value="" style="shape=tableRow;horizontal=0;startSize=0;swimlaneHead=0;swimlaneBody=0;top=0;left=0;bottom=0;right=0;collapsible=0;dropTarget=0;fillColor=none;points=[[0,0.5],[1,0.5]];portConstraint=eastwest;" parent="79" vertex="1">
                    <mxGeometry width="200" height="45" as="geometry"/>
                </mxCell>
                <mxCell id="81" value="Abonne" style="shape=partialRectangle;html=1;whiteSpace=wrap;connectable=0;overflow=hidden;fillColor=none;top=0;left=0;bottom=0;right=0;pointerEvents=1;" parent="80" vertex="1">
                    <mxGeometry width="200" height="45" as="geometry">
                        <mxRectangle width="200" height="45" as="alternateBounds"/>
                    </mxGeometry>
                </mxCell>
                <mxCell id="82" value="" style="shape=tableRow;horizontal=0;startSize=0;swimlaneHead=0;swimlaneBody=0;top=0;left=0;bottom=0;right=0;collapsible=0;dropTarget=0;fillColor=none;points=[[0,0.5],[1,0.5]];portConstraint=eastwest;" parent="79" vertex="1">
                    <mxGeometry y="45" width="200" height="64" as="geometry"/>
                </mxCell>
                <mxCell id="83" value="&lt;div style=&quot;&quot;&gt;&lt;span style=&quot;background-color: initial;&quot;&gt;- id: int&lt;/span&gt;&lt;/div&gt;&lt;span style=&quot;&quot;&gt;&lt;div style=&quot;&quot;&gt;&lt;span style=&quot;background-color: initial;&quot;&gt;- User : User&lt;/span&gt;&lt;br&gt;&lt;/div&gt;&lt;/span&gt;" style="shape=partialRectangle;html=1;whiteSpace=wrap;connectable=0;overflow=hidden;fillColor=none;top=0;left=0;bottom=0;right=0;pointerEvents=1;align=left;" parent="82" vertex="1">
                    <mxGeometry width="200" height="64" as="geometry">
                        <mxRectangle width="200" height="64" as="alternateBounds"/>
                    </mxGeometry>
                </mxCell>
                <mxCell id="84" value="" style="shape=tableRow;horizontal=0;startSize=0;swimlaneHead=0;swimlaneBody=0;top=0;left=0;bottom=0;right=0;collapsible=0;dropTarget=0;fillColor=none;points=[[0,0.5],[1,0.5]];portConstraint=eastwest;" parent="79" vertex="1">
                    <mxGeometry y="109" width="200" height="50" as="geometry"/>
                </mxCell>
                <mxCell id="85" value="&lt;span style=&quot;&quot;&gt;+ addAbonne&lt;/span&gt;&lt;span style=&quot;&quot;&gt;(id) : void&lt;/span&gt;" style="shape=partialRectangle;html=1;whiteSpace=wrap;connectable=0;overflow=hidden;fillColor=none;top=0;left=0;bottom=0;right=0;pointerEvents=1;align=left;" parent="84" vertex="1">
                    <mxGeometry width="200" height="50" as="geometry">
                        <mxRectangle width="200" height="50" as="alternateBounds"/>
                    </mxGeometry>
                </mxCell>
                <mxCell id="86" value="" style="endArrow=none;html=1;entryX=-0.011;entryY=0.582;entryDx=0;entryDy=0;entryPerimeter=0;exitX=1.002;exitY=0.681;exitDx=0;exitDy=0;exitPerimeter=0;" parent="1" source="80" edge="1">
                    <mxGeometry width="50" height="50" relative="1" as="geometry">
                        <mxPoint x="10" y="227.15" as="sourcePoint"/>
                        <mxPoint x="120.00000000000045" y="226.89000000000001" as="targetPoint"/>
                    </mxGeometry>
                </mxCell>
                <mxCell id="87" value="0.1" style="text;html=1;align=center;verticalAlign=middle;resizable=0;points=[];autosize=1;strokeColor=none;fillColor=none;" parent="1" vertex="1">
                    <mxGeometry x="90" y="205" width="40" height="30" as="geometry"/>
                </mxCell>
                <mxCell id="88" value="0.*" style="text;html=1;align=center;verticalAlign=middle;resizable=0;points=[];autosize=1;strokeColor=none;fillColor=none;" parent="1" vertex="1">
                    <mxGeometry x="10" y="330" width="40" height="30" as="geometry"/>
                </mxCell>
            </root>
        </mxGraphModel>
    </diagram>
</mxfile>